<?xml version="1.0" standalone="no"?>
<!DOCTYPE svg PUBLIC "-//W3C//DTD SVG 20010904//EN"
 "http://www.w3.org/TR/2001/REC-SVG-20010904/DTD/svg10.dtd">
<svg version="1.0" xmlns="http://www.w3.org/2000/svg"
 width="260.000000pt" height="260.000000pt" viewBox="0 0 260.000000 260.000000"
 preserveAspectRatio="xMidYMid meet">
<metadata>
Created by potrace 1.14, written by Peter Selinger 2001-2017
</metadata>
<g transform="translate(0.000000,260.000000) scale(0.100000,-0.100000)"
fill="#000000" stroke="none">
<path d="M1060 2568 c-182 -37 -328 -97 -479 -199 -146 -97 -320 -281 -386
-406 -11 -21 -22 -40 -25 -43 -17 -15 -104 -230 -114 -282 -2 -13 -9 -45 -15
-71 -45 -196 -31 -467 34 -662 47 -138 144 -323 202 -383 7 -7 13 -17 13 -21
0 -10 200 -211 209 -211 5 0 21 -11 37 -25 35 -31 177 -115 193 -115 6 0 11
-3 11 -8 0 -4 15 -12 33 -18 17 -7 56 -21 85 -32 64 -25 172 -53 262 -68 48
-8 283 -9 345 -2 279 34 545 166 750 372 55 56 119 130 142 166 24 36 46 70
51 75 4 6 29 53 54 105 49 99 101 260 112 345 4 28 9 61 11 75 6 37 7 251 1
279 -3 14 -8 45 -11 70 -6 55 -35 164 -65 245 -85 233 -271 474 -470 606 -12
8 -33 23 -45 33 -13 9 -26 17 -29 17 -4 0 -23 11 -44 24 -76 48 -286 121 -407
142 -22 3 -112 8 -200 9 -126 2 -180 -2 -255 -17z"/>
</g>
</svg>
