<?xml version="1.0" standalone="no"?>
<!DOCTYPE svg PUBLIC "-//W3C//DTD SVG 20010904//EN"
 "http://www.w3.org/TR/2001/REC-SVG-20010904/DTD/svg10.dtd">
<svg version="1.0" xmlns="http://www.w3.org/2000/svg"
 width="260.000000pt" height="260.000000pt" viewBox="0 0 260.000000 260.000000"
 preserveAspectRatio="xMidYMid meet">
<metadata>
Created by potrace 1.14, written by Peter Selinger 2001-2017
</metadata>
<g transform="translate(0.000000,260.000000) scale(0.100000,-0.100000)"
fill="#000000" stroke="none">
<path d="M651 1956 c-7 -8 -37 -14 -84 -15 -39 -1 -81 -4 -92 -7 -11 -2 -53
-6 -92 -8 -40 -3 -76 -7 -80 -9 -5 -3 -30 -7 -58 -11 -73 -8 -167 -35 -185
-51 -14 -13 -16 -63 -17 -427 -1 -454 -2 -449 60 -504 57 -51 204 -134 237
-134 4 0 25 -7 46 -17 22 -9 46 -17 54 -18 8 -1 53 -11 100 -23 136 -32 260
-54 325 -58 22 -1 87 -7 145 -14 58 -6 122 -12 142 -12 25 0 35 -4 31 -12 -4
-6 0 -5 9 2 13 10 17 10 21 0 4 -10 6 -10 6 0 1 6 6 12 12 12 5 0 7 -6 3 -12
-6 -10 -4 -10 7 0 16 14 33 16 24 2 -4 -6 4 -5 19 1 20 10 29 9 43 -2 9 -8 14
-9 10 -3 -4 7 5 11 23 11 18 0 27 -4 23 -11 -4 -6 1 -5 11 3 15 13 19 13 27 0
6 -10 9 -10 9 -1 0 6 7 12 15 12 8 0 15 -6 15 -12 0 -9 3 -9 9 1 5 8 16 11 24
8 9 -3 17 -2 19 2 2 5 44 11 93 15 50 4 110 9 135 11 55 4 236 38 317 59 32 9
68 17 79 19 10 2 32 9 47 15 16 7 32 12 37 12 18 0 137 55 189 88 64 40 119
96 127 129 4 12 9 23 13 23 3 0 6 183 6 406 l-1 406 -23 19 c-22 18 -81 39
-126 45 -11 1 -36 5 -55 9 -60 11 -152 24 -159 23 -3 -1 -44 2 -91 7 -94 9
-109 10 -193 13 -44 2 -56 5 -51 15 5 8 2 8 -9 -2 -14 -11 -17 -11 -17 0 0 11
-2 11 -10 -1 -6 -10 -10 -11 -10 -2 0 6 -7 12 -16 12 -9 0 -12 -5 -8 -12 6
-10 4 -10 -7 0 -10 9 -120 12 -479 12 -359 0 -469 -3 -479 -12 -11 -10 -13
-10 -7 0 9 15 -10 16 -19 2 -5 -8 -11 -7 -21 1 -10 8 -14 8 -14 0 0 -6 -5 -11
-11 -11 -5 0 -7 6 -3 13 6 9 4 9 -8 -1 -13 -10 -17 -10 -21 0 -4 10 -6 10 -6
1 -1 -7 -13 -13 -27 -13 -14 0 -23 4 -19 10 9 15 -1 12 -14 -4z"/>
</g>
</svg>
